<?xml version="1.0" encoding="UTF-8" standalone="no"?>
<!-- Created with Inkscape (http://www.inkscape.org/) -->

<svg
   xmlns:dc="http://purl.org/dc/elements/1.1/"
   xmlns:cc="http://creativecommons.org/ns#"
   xmlns:rdf="http://www.w3.org/1999/02/22-rdf-syntax-ns#"
   xmlns:svg="http://www.w3.org/2000/svg"
   xmlns="http://www.w3.org/2000/svg"
   xmlns:xlink="http://www.w3.org/1999/xlink"
   xmlns:sodipodi="http://sodipodi.sourceforge.net/DTD/sodipodi-0.dtd"
   xmlns:inkscape="http://www.inkscape.org/namespaces/inkscape"
   width="210mm"
   height="297mm"
   viewBox="0 0 210 297"
   version="1.1"
   id="svg8"
   inkscape:version="0.92.5 (2060ec1f9f, 2020-04-08)"
   sodipodi:docname="icons.svg">
  <defs
     id="defs2">
    <linearGradient
       gradientUnits="objectBoundingBox"
       y2=".089"
       y1=".668"
       x2=".776"
       x1=".467"
       id="vukmptq25a">
      <stop
         id="stop815"
         stop-color="#575ce3"
         offset="0" />
      <stop
         id="stop817"
         stop-color="#57e3da"
         offset="1" />
    </linearGradient>
    <linearGradient
       xlink:href="#vukmptq25a"
       y2="36.866619"
       y1="70.615236"
       x2="1523.0792"
       x1="1576.0232"
       id="4s91on01xb"
       gradientTransform="scale(0.97287137,1.0278851)"
       gradientUnits="userSpaceOnUse" />
    <linearGradient
       gradientUnits="objectBoundingBox"
       y2=".017"
       y1=".983"
       x2=".295"
       x1=".705"
       id="linear-gradient">
      <stop
         id="stop848"
         stop-color="#575ce3"
         offset="0" />
      <stop
         id="stop850"
         stop-color="#57e3da"
         offset="1" />
    </linearGradient>
    <linearGradient
       xlink:href="#linear-gradient"
       y2="5143.8822"
       y1="5144.6872"
       x2="59.598604"
       x1="-23.108295"
       id="linear-gradient-2"
       gradientTransform="scale(1.0443697,0.95751532)"
       gradientUnits="userSpaceOnUse" />
    <style
       id="style854">
            .cls-2{fill-rule:evenodd;fill:#fefefe}
        </style>
    <linearGradient
       gradientUnits="objectBoundingBox"
       y2="1.016"
       y1="-.368"
       x2="1.015"
       x1="-.073"
       id="n8wmx3h5wa">
      <stop
         id="stop881"
         stop-color="#57e3da"
         offset="0" />
      <stop
         id="stop883"
         stop-color="#575ce3"
         offset="1" />
    </linearGradient>
    <linearGradient
       xlink:href="#n8wmx3h5wa"
       y2="4944.6526"
       y1="4917.431"
       x2="5296.3882"
       x1="5270.3698"
       id="7yu3wtg9sb"
       gradientTransform="scale(0.97368511,1.0270261)"
       gradientUnits="userSpaceOnUse" />
    <linearGradient
       xlink:href="#n8wmx3h5wa"
       y2="5394.7353"
       y1="5351.4278"
       x2="6640.9283"
       x1="6575.7697"
       id="wwdl6v8m2b"
       gradientTransform="scale(0.94773478,1.0551475)"
       gradientUnits="userSpaceOnUse" />
    <linearGradient
       gradientUnits="objectBoundingBox"
       y2="1.057"
       y1="-.329"
       x2="1.584"
       x1="-.133"
       id="linear-gradient-3">
      <stop
         id="stop938"
         stop-color="#57e3da"
         offset="0" />
      <stop
         id="stop940"
         stop-color="#575ce3"
         offset="1" />
    </linearGradient>
    <linearGradient
       xlink:href="#linear-gradient-3"
       y2="22911.298"
       y1="22912.046"
       x2="16500.932"
       x1="16424.052"
       id="linear-gradient-2-6"
       gradientTransform="scale(1.0443566,0.95752735)"
       gradientUnits="userSpaceOnUse" />
    <style
       id="style944">
            .cls-2{fill-rule:evenodd;fill:#fefefe}
        </style>
    <linearGradient
       gradientUnits="userSpaceOnUse"
       y2="54.83804"
       y1="3.1302899"
       x2="44.345772"
       x1="13.622558"
       id="r6766uhe4a"
       gradientTransform="scale(1.1514218,0.86849146)">
      <stop
         id="stop970"
         stop-color="#57e3da"
         offset="0" />
      <stop
         id="stop972"
         stop-color="#575ce3"
         offset="1" />
    </linearGradient>
    <linearGradient
       gradientUnits="userSpaceOnUse"
       y2="99247.995"
       y1="99248.259"
       x2="225064.66"
       x1="225028.64"
       id="i3vqo66mwb"
       gradientTransform="scale(0.87833161,1.1385222)">
      <stop
         id="stop975"
         stop-color="#fff"
         offset="0" />
      <stop
         id="stop977"
         stop-color="#0086ff"
         offset="1" />
    </linearGradient>
    <linearGradient
       inkscape:collect="always"
       xlink:href="#linear-gradient-3"
       id="linearGradient1003"
       gradientUnits="userSpaceOnUse"
       x1="-7.6025102"
       y1="-18.806209"
       x2="90.54418"
       y2="60.419951"
       gradientTransform="scale(0.73617436,1.3583739)" />
    <linearGradient
       inkscape:collect="always"
       xlink:href="#n8wmx3h5wa"
       id="linearGradient1005"
       gradientUnits="userSpaceOnUse"
       x1="-5.4055039"
       y1="-27.249664"
       x2="75.158719"
       y2="75.23277" />
    <linearGradient
       inkscape:collect="always"
       xlink:href="#n8wmx3h5wa"
       id="linearGradient1007"
       gradientUnits="userSpaceOnUse"
       x1="-5.4055039"
       y1="-27.249664"
       x2="75.158719"
       y2="75.23277" />
    <linearGradient
       inkscape:collect="always"
       xlink:href="#linear-gradient"
       id="linearGradient1009"
       gradientUnits="userSpaceOnUse"
       x1="2358.4372"
       y1="72.643576"
       x2="2328.1383"
       y2="1.2562565"
       gradientTransform="scale(1.1945345,0.8371462)" />
    <linearGradient
       inkscape:collect="always"
       xlink:href="#vukmptq25a"
       id="linearGradient1011"
       gradientUnits="userSpaceOnUse"
       x1="3316.6052"
       y1="1877.3737"
       x2="3333.5475"
       y2="1845.6276" />
  </defs>
  <sodipodi:namedview
     id="base"
     pagecolor="#ffffff"
     bordercolor="#666666"
     borderopacity="1.0"
     inkscape:pageopacity="0.0"
     inkscape:pageshadow="2"
     inkscape:zoom="1.979899"
     inkscape:cx="473.34641"
     inkscape:cy="855.26562"
     inkscape:document-units="mm"
     inkscape:current-layer="layer1"
     showgrid="false"
     inkscape:window-width="1876"
     inkscape:window-height="1016"
     inkscape:window-x="44"
     inkscape:window-y="27"
     inkscape:window-maximized="1" />
  <metadata
     id="metadata5">
    <rdf:RDF>
      <cc:Work
         rdf:about="">
        <dc:format>image/svg+xml</dc:format>
        <dc:type
           rdf:resource="http://purl.org/dc/dcmitype/StillImage" />
        <dc:title></dc:title>
      </cc:Work>
    </rdf:RDF>
  </metadata>
  <g
     inkscape:label="Layer 1"
     inkscape:groupmode="layer"
     id="layer1">
    <g
       id="g831"
       transform="matrix(0.22824744,0,0,0.22824744,163.8251,42.999998)">
      <g
         id="g829"
         transform="translate(-15,-6)">
        <path
           id="path823"
           transform="rotate(180,1680.42,967.186)"
           d="M 3336.422,1895.577 A 32.118204,32.118204 0 0 0 3291,1850.155 Z"
           inkscape:connector-curvature="0"
           style="opacity:0.6;fill:url(#linearGradient1011);fill-rule:evenodd" />
        <path
           id="path825"
           transform="translate(-1443.883,-16.578)"
           d="M 1507.514,23 1492.257,55.24 1477,87.479 h 61.028 l -15.257,-32.24 z"
           inkscape:connector-curvature="0"
           style="opacity:0.6;fill:url(#4s91on01xb);fill-rule:evenodd" />
        <circle
           id="circle827"
           transform="translate(67.262,6)"
           r="27"
           cy="27"
           cx="27"
           style="opacity:0.6;fill:#575ce3" />
      </g>
    </g>
    <g
       transform="matrix(0.26458333,0,0,0.26458333,-94.196586,-477.17941)"
       id="Group_4223">
      <path
         transform="translate(-1878.21,1979.758)"
         d="m 2837.086,9.278 h -8.412 a 4.609,4.609 0 0 1 -3.284,-1.36 l -5.653,-5.653 A 7.68,7.68 0 0 0 2814.268,0 h -13.433 a 7.679,7.679 0 0 0 -5.47,2.266 l -5.653,5.653 a 4.609,4.609 0 0 1 -3.283,1.36 h -25.243 a 6.193,6.193 0 0 0 -6.186,6.19 v 40.21 a 6.192,6.192 0 0 0 6.186,6.186 h 75.9 a 6.194,6.194 0 0 0 6.19,-6.186 V 15.468 a 6.2,6.2 0 0 0 -6.19,-6.19 z"
         id="Path_2551"
         inkscape:connector-curvature="0"
         style="opacity:0.6;fill:url(#linearGradient1009);fill-rule:evenodd" />
      <path
         transform="translate(-20443.113,-8856.99)"
         class="cls-2"
         d="m 21397.092,10886.185 a 3.092,3.092 0 1 1 3.094,-3.092 3.1,3.1 0 0 1 -3.094,3.092 z"
         id="Path_2552"
         inkscape:connector-curvature="0"
         style="fill:#fefefe;fill-rule:evenodd" />
      <path
         transform="translate(-10395.217,-1895.774)"
         class="cls-2"
         d="m 11324.557,3928.118 a 18.559,18.559 0 1 1 18.56,-18.562 18.579,18.579 0 0 1 -18.56,18.562 z m 15.469,-18.562 a 15.466,15.466 0 1 0 -15.469,15.468 15.465,15.465 0 0 0 15.468,-15.468 z"
         id="Path_2553"
         inkscape:connector-curvature="0"
         style="fill:#fefefe;fill-rule:evenodd" />
      <path
         transform="translate(865.838,-2909.727)"
         d="m 4.258,4909 h 26.511 a 4.271,4.271 0 0 1 4.258,4.257 v 23.6 a 4.27,4.27 0 0 1 -4.258,4.257 H 4.258 A 4.27,4.27 0 0 1 0,4936.855 v -23.6 A 4.271,4.271 0 0 1 4.258,4909 Z"
         id="Path_2554"
         inkscape:connector-curvature="0"
         style="opacity:0.6;fill:url(#linear-gradient-2)" />
      <path
         transform="translate(-750.325,-4916.717)"
         class="cls-2"
         d="m 1639.41,6933.346 a 1.009,1.009 0 0 0 -1.419,0 l -2.314,2.314 -4.317,-4.318 a 1,1 0 0 0 -1.415,0 l -7.044,7.045 a 1.009,1.009 0 0 0 0.012,1.423 1.024,1.024 0 0 0 0.692,0.286 h 20.123 a 1,1 0 0 0 1.01,-1 0.983,0.983 0 0 0 -0.3,-0.719 z m 0.29,-6.328 a 3.017,3.017 0 1 0 -3.017,3.018 3.015,3.015 0 0 0 3.017,-3.018 z"
         id="Path_2555"
         inkscape:connector-curvature="0"
         style="fill:#fefefe;fill-rule:evenodd" />
    </g>
    <g
       id="g895"
       transform="matrix(0.26550548,0,0,0.26550548,107.80761,42.999738)"
       style="fill-rule:evenodd">
      <path
         id="path889"
         transform="translate(0,1.281)"
         d="M 37.023,0 A 37.024,37.024 0 1 1 0,37.023 37.024,37.024 0 0 1 37.023,0 Z"
         inkscape:connector-curvature="0"
         style="opacity:0.6;fill:url(#linearGradient1007)" />
      <path
         id="path891"
         transform="translate(-2083,-2081.719)"
         d="m 2139.582,2128.323 a 14.29,14.29 0 0 1 -0.9,4.7 9.91,9.91 0 0 1 -5.655,5.655 14.29,14.29 0 0 1 -4.7,0.9 c -2.06,0.092 -2.719,0.117 -7.973,0.117 -5.254,0 -5.913,-0.025 -7.981,-0.117 a 14.279,14.279 0 0 1 -4.7,-0.9 9.532,9.532 0 0 1 -3.428,-2.235 9.41,9.41 0 0 1 -2.227,-3.419 14.277,14.277 0 0 1 -0.9,-4.7 c -0.092,-2.06 -0.117,-2.719 -0.117,-7.973 0,-5.254 0.025,-5.913 0.117,-7.981 a 14.054,14.054 0 0 1 0.9,-4.7 9.838,9.838 0 0 1 5.655,-5.655 14.266,14.266 0 0 1 4.7,-0.9 c 2.068,-0.092 2.727,-0.117 7.981,-0.117 5.254,0 5.913,0.025 7.973,0.117 a 14.277,14.277 0 0 1 4.7,0.9 9.41,9.41 0 0 1 3.419,2.227 9.532,9.532 0 0 1 2.235,3.428 14.279,14.279 0 0 1 0.9,4.7 c 0.092,2.068 0.117,2.727 0.117,7.981 0,5.254 -0.025,5.911 -0.116,7.972 z m -8.907,-15.98 a 2.323,2.323 0 1 1 2.327,-2.319 2.324,2.324 0 0 1 -2.328,2.319 z m -10.325,17.939 a 9.933,9.933 0 1 1 9.933,-9.933 9.931,9.931 0 0 1 -9.934,9.933 z m 6.447,-9.933 a 6.447,6.447 0 1 1 -6.447,-6.447 6.446,6.446 0 0 1 6.45,6.447 z m 8.632,-11.409 a 5.967,5.967 0 0 0 -1.443,-2.227 6.1,6.1 0 0 0 -2.227,-1.451 10.842,10.842 0 0 0 -3.595,-0.659 c -2.035,-0.1 -2.652,-0.117 -7.815,-0.117 -5.163,0 -5.78,0.017 -7.823,0.117 a 10.779,10.779 0 0 0 -3.586,0.659 6.444,6.444 0 0 0 -3.678,3.678 10.793,10.793 0 0 0 -0.659,3.595 c -0.1,2.035 -0.117,2.644 -0.117,7.814 0,5.17 0.017,5.78 0.117,7.815 a 10.842,10.842 0 0 0 0.659,3.595 6.1,6.1 0 0 0 1.451,2.227 5.967,5.967 0 0 0 2.227,1.443 10.5,10.5 0 0 0 3.586,0.667 c 2.043,0.1 2.652,0.117 7.823,0.117 5.171,0 5.78,-0.017 7.815,-0.117 a 10.565,10.565 0 0 0 3.595,-0.667 6.388,6.388 0 0 0 3.669,-3.669 10.565,10.565 0 0 0 0.667,-3.595 c 0.092,-2.035 0.117,-2.652 0.117,-7.815 0,-5.163 -0.025,-5.78 -0.117,-7.814 a 10.517,10.517 0 0 0 -0.667,-3.595 z"
         inkscape:connector-curvature="0"
         style="fill:#fefefe" />
      <path
         id="path893"
         transform="translate(-5066.443,-5045)"
         d="m 5146.719,5083.613 h -4.744 a 2.953,2.953 0 0 1 -2.948,-2.677 l -0.379,-3.776 a 13.412,13.412 0 0 1 -2.569,-1.494 l -3.467,1.571 a 2.972,2.972 0 0 1 -3.8,-1.223 l -2.367,-4.1 a 2.965,2.965 0 0 1 0.835,-3.9 l 3.064,-2.2 a 11.45,11.45 0 0 1 -0.1,-1.509 11.322,11.322 0 0 1 0.1,-1.5 l -3.064,-2.2 a 2.964,2.964 0 0 1 -0.835,-3.9 l 2.367,-4.1 a 2.962,2.962 0 0 1 3.792,-1.222 l 3.475,1.571 a 13.876,13.876 0 0 1 2.569,-1.5 l 0.379,-3.775 a 2.959,2.959 0 0 1 2.948,-2.678 h 4.744 a 2.952,2.952 0 0 1 2.948,2.678 l 0.387,3.775 a 14.535,14.535 0 0 1 2.57,1.494 l 3.458,-1.563 a 2.956,2.956 0 0 1 3.8,1.222 l 2.368,4.1 a 2.954,2.954 0 0 1 -0.835,3.892 l -3.057,2.2 a 11.315,11.315 0 0 1 0,3.018 l 3.057,2.2 a 2.965,2.965 0 0 1 0.835,3.9 l -2.368,4.093 a 2.973,2.973 0 0 1 -3.792,1.23 l -3.467,-1.571 a 14.067,14.067 0 0 1 -2.57,1.494 l -0.387,3.784 a 2.951,2.951 0 0 1 -2.948,2.669 z m -2.368,-23.763 a 4.457,4.457 0 1 0 4.449,4.457 4.463,4.463 0 0 0 -4.448,-4.457 z"
         inkscape:connector-curvature="0"
         style="opacity:0.6;fill:url(#7yu3wtg9sb)" />
    </g>
    <g
       id="g925"
       transform="matrix(0.27009507,0,0,0.27009507,85.882,43)">
      <path
         style="opacity:0.6;fill:url(#linearGradient1005);fill-rule:evenodd"
         id="path919"
         d="M 37.023,0 A 37.024,37.024 0 1 1 0,37.023 37.024,37.024 0 0 1 37.023,0 Z"
         inkscape:connector-curvature="0" />
      <path
         id="path921"
         transform="translate(-6227.979,-5628.905)"
         d="m 6248,5684.859 8.8,-37.859 h 16.451 l 8.754,37.859 h -10.6 l -6.393,-31.675 h 0.051 l -6.465,31.675 z"
         inkscape:connector-curvature="0"
         style="opacity:0.6;fill:url(#wwdl6v8m2b)" />
      <path
         id="path923"
         transform="translate(-17600.138,-14681.608)"
         d="m 17661.395,14729 a 4.4,4.4 0 1 1 -4.395,4.395 4.4,4.4 0 0 1 4.395,-4.395 z"
         inkscape:connector-curvature="0"
         style="fill:#fefefe" />
    </g>
    <g
       id="_2237116607744"
       transform="matrix(0.25757595,0,0,0.25757595,67.237663,43)">
      <path
         style="opacity:0.6;fill:url(#linearGradient1003);fill-rule:evenodd"
         d="M 4.3,0 A 4.309,4.309 0 0 0 0,4.3 v 69.047 a 4.308,4.308 0 0 0 4.3,4.3 h 33.481 a 4.309,4.309 0 0 0 4.3,-4.3 V 4.3 A 4.31,4.31 0 0 0 37.781,0 Z"
         id="Path_2541"
         inkscape:connector-curvature="0" />
      <path
         transform="translate(-5357.353)"
         class="cls-2"
         d="M 5390.783,0 H 5366 a 0.831,0.831 0 0 1 0.83,0.828 v 0.129 a 2.658,2.658 0 0 0 2.651,2.651 h 17.819 a 2.659,2.659 0 0 0 2.652,-2.651 V 0.828 A 0.83,0.83 0 0 1 5390.783,0 Z"
         id="Path_2542"
         inkscape:connector-curvature="0"
         style="fill:#fefefe;fill-rule:evenodd" />
      <path
         style="opacity:0.6;fill:url(#linear-gradient-2-6)"
         transform="translate(-17147.324,-21887.674)"
         d="m 17178.959,21923 h 24.643 a 3.967,3.967 0 0 1 3.957,3.959 v 21.934 a 3.969,3.969 0 0 1 -3.957,3.959 h -24.643 a 3.969,3.969 0 0 1 -3.959,-3.959 v -21.934 a 3.968,3.968 0 0 1 3.959,-3.959 z"
         id="Path_2543"
         inkscape:connector-curvature="0" />
      <rect
         transform="translate(12.881,73.032)"
         rx="0.5"
         height="1"
         width="16"
         id="Rectangle_3304"
         x="0"
         y="0"
         style="fill:#fefefe" />
      <path
         transform="translate(-20611.732,-27522.578)"
         class="cls-2"
         d="m 20659.1,27567.135 a 1,1 0 0 0 -0.5,-0.135 0.97,0.97 0 0 0 -0.832,0.471 l -5.83,9.717 a 0.984,0.984 0 0 0 -0.137,0.5 0.97,0.97 0 0 0 1.8,0.5 l 5.832,-9.717 a 0.958,0.958 0 0 0 0.137,-0.5 0.978,0.978 0 0 0 -0.47,-0.836 z m -10,11.158 a 0.973,0.973 0 0 0 1.732,-0.607 1,1 0 0 0 -0.213,-0.607 l -3.4,-4.25 3.4,-4.252 a 0.986,0.986 0 0 0 0.213,-0.607 0.973,0.973 0 0 0 -1.732,-0.6 l -3.887,4.855 a 0.973,0.973 0 0 0 0,1.215 z m 13.178,-10.928 a 0.957,0.957 0 0 0 -0.756,-0.365 0.968,0.968 0 0 0 -0.973,0.969 0.984,0.984 0 0 0 0.211,0.607 l 3.4,4.252 -3.4,4.25 a 1,1 0 0 0 -0.211,0.607 0.97,0.97 0 0 0 1.729,0.607 l 3.887,-4.857 a 0.966,0.966 0 0 0 0,-1.215 z"
         id="Path_2544"
         inkscape:connector-curvature="0"
         style="fill:#fefefe;fill-rule:evenodd" />
    </g>
    <g
       id="g986"
       transform="matrix(0.25624575,0,0,0.25624575,42.39622,47.142678)">
      <path
         id="path982"
         d="m 3.109,0 h 60.527 a 3.119,3.119 0 0 1 3.11,3.11 V 7.852 H 0 V 3.109 A 3.119,3.119 0 0 1 3.109,0 Z m 63.637,10.906 v 36.329 a 3.119,3.119 0 0 1 -3.11,3.11 H 3.109 A 3.119,3.119 0 0 1 0,47.235 V 10.906 Z"
         inkscape:connector-curvature="0"
         style="opacity:0.6;fill:url(#r6766uhe4a);fill-rule:evenodd" />
      <path
         id="path984"
         transform="translate(-197604.3,-112953.93)"
         d="m 197656.16,112978.26 28.06,22.51 a 0.477,0.477 0 0 1 0.1,0.7 0.427,0.427 0 0 1 -0.32,0.17 l -10.51,0.99 5.12,9.28 a 0.5,0.5 0 0 1 -0.18,0.67 l -5.74,3.18 a 0.513,0.513 0 0 1 -0.67,-0.2 l -5.11,-9.29 -6.4,8.4 a 0.48,0.48 0 0 1 -0.69,0.1 0.455,0.455 0 0 1 -0.2,-0.36 l -4.24,-35.7 a 0.49,0.49 0 0 1 0.44,-0.55 0.4,0.4 0 0 1 0.36,0.11 z"
         inkscape:connector-curvature="0"
         style="opacity:0.6;fill:url(#i3vqo66mwb)" />
    </g>
  </g>
</svg>
